<svg version="1.1" width="64" height="64" xmlns="http://www.w3.org/2000/svg" xmlns:xlink="http://www.w3.org/1999/xlink">
  <filter id="shadow">
    <feGaussianBlur in="SourceGraphic" stdDeviation="2" />
  </filter>
  
  <g fill="orange" filter="url(#shadow)">
    <path id="icon" d="
      M 4,32
      A 28,28 0 0 0 60,32
      A 28,28 0 0 0 4,32
      
      M 14,32
      A 4,4 0 0 1 22,32
      A 4,4 0 0 1 14,32
      
      M 28,32
      A 4,4 0 0 1 36,32
      A 4,4 0 0 1 28,32
      
      M 42,32
      A 4,4 0 0 1 50,32
      A 4,4 0 0 1 42,32
    "/>
  </g>
  
  <use href="#icon" fill="white"/>
</svg>

