<svg version="1.1" width="64" height="64" xmlns="http://www.w3.org/2000/svg" xmlns:xlink="http://www.w3.org/1999/xlink">
  <filter id="shadow">
    <feGaussianBlur in="SourceGraphic" stdDeviation="2" />
  </filter>
  
  <g fill="orange" filter="url(#shadow)">
    <path id="icon" d="
      M 32,60
      A 28,28 0 0 0 32,4
      A 28,28 0 0 0 32,60
      
      M 32,46
      L 26,46
      A 1,1 0 0 1 26,44
      L 31,44
      
      L 31,42
      A 8,8 0 0 1 24,34
      A 1,1 0 0 1 26,34
      A 6,6 0 0 0 32,40
      
      M 32,38
      A 4,4 0 0 1 28,34
      L 28,22
      A 4,4 0 0 1 36,22
      L 36,34
      A 4,4 0 0 1 32,38
      M 32,40
      
      A 6,6 0 0 0 38,34
      A 1,1 0 0 1 40,34
      A 8,8 0 0 1 33,42
      L 33,44
      
      L 38,44
      A 1,1 0 0 1 38,46
      L 32,46
    "/>
  </g>
  
  <use href="#icon" fill="white"/>
</svg>

