<svg version="1.1" width="128" height="96" xmlns="http://www.w3.org/2000/svg" xmlns:xlink="http://www.w3.org/1999/xlink">
  <mask id="mask">
    <rect x="0" y="0" width="128" height="96" fill="white"/>
    <path id="cloud" transform="scale(0.75) translate(12, 28)" d="
      M 28,80
      A 16,16 0 0 1 28 48
      A 32,32 0 0 1 88 32
      A 24,24 0 0 1 88 80
      Z
    "/>
  </mask>
  
  <use href="#cloud" stroke="white" stroke-width="4" fill="transparent"/>
  
  <g mask="url(#mask)">
    <path transform="scale(0.85) translate(32, 4)" stroke="white" stroke-width="4" stroke-linecap="round" fill="transparent" d="
      M 64,32
      A 16,16 0 0 1 64,64
      A 16,16 0 0 1 64 32
      
      M 64,24 V 16
      M 83,31 L 88.7,25.3
      M 88,48 H 96
      M 83 65 L 88.7,70.7
      M 47,31 L 41.3,25.3
    "/>
  </g>
</svg>

