<svg version="1.1" width="128" height="96" xmlns="http://www.w3.org/2000/svg" xmlns:xlink="http://www.w3.org/1999/xlink">
  <path id="cloud" transform="scale(0.75) translate(24, 0)" stroke="white" stroke-width="4" stroke-linecap="round" fill="transparent" d="
    M 28,80
    A 16,16 0 0 1 28 48
    A 32,32 0 0 1 88 32
    A 24,24 0 0 1 88 80
    L 28,80

    M 40,88  L 36,96
    M 32,104 L 28,112
    
    M 56,80  L 52,88
    M 48,96  L 44,104
    
    M 64,88  L 60,96
    M 56,104 L 52,112
    
    M 80,80  L 76,88
    M 72,96  L 68,104
  "/>
</svg>

